<?xml version="1.0" encoding="UTF-8" standalone="no"?>
<svg
   xmlns:dc="http://purl.org/dc/elements/1.1/"
   xmlns:cc="http://creativecommons.org/ns#"
   xmlns:rdf="http://www.w3.org/1999/02/22-rdf-syntax-ns#"
   xmlns:svg="http://www.w3.org/2000/svg"
   xmlns="http://www.w3.org/2000/svg"
   viewBox="0 0 1333.3333 1333.3333"
   height="1333.3333"
   width="1333.3333"
   xml:space="preserve"
   id="svg2"
   version="1.1"><metadata
     id="metadata8"><rdf:RDF><cc:Work
         rdf:about=""><dc:format>image/svg+xml</dc:format><dc:type
           rdf:resource="http://purl.org/dc/dcmitype/StillImage" /></cc:Work></rdf:RDF></metadata><defs
     id="defs6" /><g
     transform="matrix(1.3333333,0,0,-1.3333333,0,1333.3333)"
     id="g10"><g
       transform="scale(0.1)"
       id="g12"><path
         id="path14"
         style="fill:#f3f4f5;fill-opacity:1;fill-rule:nonzero;stroke:none"
         d="M 10000,0 H 0 V 10000 H 10000 V 0" /><path
         id="path16"
         style="fill:#e74c3c;fill-opacity:1;fill-rule:nonzero;stroke:none"
         d="m 3738.7,7074.86 c -94.77,0 -171.87,77.1 -171.87,171.87 v 535.39 c 0,16.57 13.43,30 30,30 16.57,0 30,-13.43 30,-30 v -535.39 c 0,-61.69 50.19,-111.87 111.87,-111.87 61.69,0 111.87,50.18 111.87,111.87 v 535.39 c 0,16.57 13.43,30 30,30 16.57,0 30,-13.43 30,-30 v -535.39 c 0,-94.77 -77.1,-171.87 -171.87,-171.87" /><path
         id="path18"
         style="fill:#e74c3c;fill-opacity:1;fill-rule:nonzero;stroke:none"
         d="m 3848.97,7074.86 c -16.56,0 -30,13.43 -30,30 0,16.57 13.44,30 30,30 61.69,0 111.87,50.18 111.87,111.87 v 535.39 c 0,16.57 13.44,30 30,30 16.57,0 30,-13.43 30,-30 v -535.39 c 0,-94.77 -77.09,-171.87 -171.87,-171.87" /><path
         id="path20"
         style="fill:#e74c3c;fill-opacity:1;fill-rule:nonzero;stroke:none"
         d="m 3463.72,9243.61 c -125.16,0 -226.99,-101.83 -226.99,-226.99 v -970.84 c 0,-125.16 101.83,-226.99 226.99,-226.99 h 449.72 c 125.16,0 226.99,101.83 226.99,226.99 v 634.81 c -14.87,0.98 -34.56,1.7 -55.41,0.92 -58.09,-2.32 -107.39,37.32 -119.64,91.64 -11.52,-4.26 -23.79,-6.75 -36.4,-7.24 -65.73,-2.53 -119.98,48.23 -122.48,113.4 -0.32,8.46 0.26,16.86 1.71,25.06 -57.02,6.74 -101.47,53.8 -103.74,112.66 -1.11,28.79 8.5,56.27 25.67,77.89 -30.59,20.46 -51.02,54.88 -52.25,94.4 -0.59,19.23 3.42,37.73 11.27,54.29 z m 449.72,-1484.82 h -449.72 c -158.25,0 -286.99,128.74 -286.99,286.99 v 970.84 c 0,158.24 128.74,286.99 286.99,286.99 h 296.92 c 14.2,0 26.45,-9.96 29.36,-23.86 2.91,-13.91 -4.33,-27.94 -17.33,-33.63 -21.88,-9.57 -35.54,-31.14 -34.81,-54.94 0.97,-31.07 26.1,-55.72 57.22,-56.11 14.66,-0.19 27.03,-10.93 29.27,-25.41 2.24,-14.48 -6.3,-28.46 -20.21,-33.07 -24.37,-8.07 -40.7,-31.61 -39.72,-57.25 1.21,-31.29 26.66,-55.8 57.94,-55.8 l 2.29,0.04 c 7.14,0.28 14.17,1.9 20.9,4.84 12.8,5.59 27.78,1.6 36.11,-9.63 8.32,-11.22 7.78,-26.71 -1.29,-37.34 -9.53,-11.17 -14.47,-25.32 -13.91,-39.83 1.2,-31.3 26.64,-55.8 57.92,-55.8 l 2.29,0.04 c 19.23,0.75 36.81,10.96 47.03,27.32 8.31,13.31 25.47,17.97 39.37,10.69 l 1.15,-0.59 c 14.46,-7.29 20.52,-24.76 13.68,-39.45 -3.94,-8.44 -5.75,-17.4 -5.4,-26.62 1.21,-31.28 26.65,-55.79 57.92,-55.79 l 2.3,0.04 c 47.91,1.86 90.06,-3.54 91.58,-3.74 14.95,-1.94 26.13,-14.67 26.13,-29.75 v -662.19 c 0,-158.25 -128.75,-286.99 -286.99,-286.99" /><path
         id="path22"
         style="fill:#e74c3c;fill-opacity:1;fill-rule:nonzero;stroke:none"
         d="m 4174.08,7758.79 h -449.72 c -16.57,0 -30,13.43 -30,30 0,16.57 13.43,30 30,30 h 449.72 c 125.16,0 226.99,101.83 226.99,226.99 v 634.81 c -14.87,0.97 -34.63,1.71 -55.41,0.92 -31.55,-1.29 -61.59,9.92 -84.72,31.34 -17.69,16.38 -29.69,37.28 -34.9,60.3 -11.53,-4.26 -23.8,-6.75 -36.42,-7.24 -65.06,-2.53 -119.98,48.37 -122.48,113.4 -0.33,8.46 0.26,16.87 1.72,25.08 -56.55,6.82 -101.49,53.97 -103.75,112.64 -1.11,28.78 8.51,56.27 25.67,77.88 -30.6,20.47 -51.02,54.89 -52.24,94.42 -0.6,19.22 3.41,37.73 11.25,54.28 h -225.43 c -16.57,0 -30,13.43 -30,30 0,16.56 13.43,30 30,30 h 296.92 c 14.2,0 26.45,-9.96 29.36,-23.86 2.91,-13.91 -4.33,-27.94 -17.33,-33.63 -21.88,-9.57 -35.54,-31.14 -34.8,-54.94 0.96,-31.07 26.09,-55.72 57.21,-56.11 14.66,-0.19 27.03,-10.93 29.27,-25.41 2.24,-14.48 -6.3,-28.46 -20.21,-33.07 -24.37,-8.07 -40.7,-31.61 -39.72,-57.25 1.24,-31.97 28.33,-57.02 60.23,-55.76 7.14,0.28 14.18,1.9 20.91,4.84 12.8,5.59 27.77,1.6 36.1,-9.63 8.32,-11.23 7.79,-26.71 -1.28,-37.34 -9.54,-11.17 -14.49,-25.32 -13.93,-39.84 1.24,-31.97 28.54,-56.78 60.22,-55.75 19.23,0.75 36.81,10.96 47.04,27.33 8.31,13.31 25.46,17.95 39.36,10.68 l 1.15,-0.59 c 14.46,-7.29 20.52,-24.75 13.68,-39.44 -3.93,-8.45 -5.75,-17.41 -5.4,-26.62 0.6,-15.49 7.19,-29.82 18.56,-40.35 11.38,-10.53 26.12,-16 41.66,-15.41 47.96,1.88 89.82,-3.51 91.58,-3.74 14.95,-1.94 26.13,-14.67 26.13,-29.75 v -662.19 c 0,-158.25 -128.74,-286.99 -286.99,-286.99" /><path
         id="path24"
         style="fill:#e74c3c;fill-opacity:1;fill-rule:nonzero;stroke:none"
         d="m 4420.26,8677.97 h -240.59 c -16.57,0 -30,13.43 -30,30 0,16.57 13.43,30 30,30 h 240.59 c 16.57,0 30,-13.43 30,-30 0,-16.57 -13.43,-30 -30,-30" /><path
         id="path26"
         style="fill:#e74c3c;fill-opacity:1;fill-rule:nonzero;stroke:none"
         d="m 3847.19,7074.86 h -83.54 c -16.57,0 -30,13.43 -30,30 0,16.57 13.43,30 30,30 h 83.54 c 16.56,0 30,-13.43 30,-30 0,-16.57 -13.44,-30 -30,-30" /><path
         id="path28"
         style="fill:#e74c3c;fill-opacity:1;fill-rule:nonzero;stroke:none"
         d="M 976.445,8455.02 C 909.934,8410.14 873.629,8356 873.629,8300.86 c 0,-138.85 227.981,-256.17 497.831,-256.17 269.85,0 497.83,117.32 497.83,256.17 0,55.14 -36.31,109.28 -102.82,154.15 -80.05,-79.01 -231.06,-128.98 -395.01,-128.98 -163.95,0 -314.97,49.97 -395.015,128.99 z m 395.015,-470.33 c -312.8,0 -557.831,138.88 -557.831,316.17 0,82.6 54.226,160.27 152.695,218.72 12.77,7.59 29.18,4.68 38.566,-6.84 62.73,-76.97 206.62,-126.71 366.57,-126.71 159.95,0 303.83,49.73 366.56,126.7 9.4,11.54 25.81,14.44 38.57,6.85 98.47,-58.45 152.7,-136.13 152.7,-218.72 0,-177.29 -245.03,-316.17 -557.83,-316.17" /><path
         id="path30"
         style="fill:#e74c3c;fill-opacity:1;fill-rule:nonzero;stroke:none"
         d="m 1371.46,8638.22 c -205.82,0 -367.05,93.45 -367.05,212.74 0,85.11 81.72,159.34 213.28,193.72 16.05,4.19 32.42,-5.41 36.61,-21.43 4.19,-16.03 -5.41,-32.42 -21.44,-36.61 -102.33,-26.75 -168.45,-80 -168.45,-135.68 0,-82.8 140.61,-152.74 307.05,-152.74 166.44,0 307.05,69.94 307.05,152.74 0,52.93 -61.64,104.96 -157.04,132.54 -15.91,4.6 -25.09,21.24 -20.48,37.16 4.6,15.91 21.23,25.1 37.15,20.48 123.59,-35.73 200.37,-108.61 200.37,-190.18 0,-119.29 -161.23,-212.74 -367.05,-212.74" /><path
         id="path32"
         style="fill:#e74c3c;fill-opacity:1;fill-rule:nonzero;stroke:none"
         d="m 1078.96,8720.91 c -66.1,-37.3 -103.589,-85.43 -103.589,-133.87 0,-108.96 181.389,-201.01 396.089,-201.01 214.7,0 396.07,92.05 396.07,201.01 0,48.44 -37.48,96.57 -103.57,133.87 -68.54,-52.06 -175.86,-82.69 -292.51,-82.69 -116.65,0 -223.96,30.62 -292.49,82.69 z m 292.5,-394.88 c -255.75,0 -456.089,114.64 -456.089,261.01 0,76.01 56.051,147.67 153.779,196.58 11.03,5.52 24.32,3.73 33.49,-4.53 55.44,-49.88 158.44,-80.87 268.81,-80.87 110.37,0 213.37,30.99 268.82,80.88 9.17,8.25 22.46,10.05 33.49,4.52 97.73,-48.9 153.77,-120.56 153.77,-196.58 0,-146.37 -200.32,-261.01 -456.07,-261.01" /><path
         id="path34"
         style="fill:#e74c3c;fill-opacity:1;fill-rule:nonzero;stroke:none"
         d="m 1371.45,9269.29 c -83.4,0 -151.25,-67.84 -151.25,-151.24 0,-83.4 67.85,-151.25 151.25,-151.25 83.4,0 151.26,67.85 151.26,151.25 0,83.4 -67.86,151.24 -151.26,151.24 z m 0,-362.49 c -116.49,0 -211.25,94.76 -211.25,211.25 0,116.48 94.76,211.24 211.25,211.24 116.49,0 211.26,-94.76 211.26,-211.24 0,-116.49 -94.77,-211.25 -211.26,-211.25" /><path
         id="path36"
         style="fill:#e74c3c;fill-opacity:1;fill-rule:nonzero;stroke:none"
         d="m 1371.46,7074.86 c -12.1,0 -23.03,7.28 -27.69,18.46 L 915.797,8120.51 c -6.371,15.29 0.859,32.85 16.152,39.23 15.309,6.37 32.86,-0.86 39.227,-16.16 l 400.284,-960.72 400.28,960.72 c 6.37,15.3 23.92,22.53 39.23,16.16 15.29,-6.38 22.52,-23.94 16.15,-39.23 L 1399.16,7093.32 c -4.66,-11.18 -15.58,-18.46 -27.7,-18.46" /><path
         id="path38"
         style="fill:#e74c3c;fill-opacity:1;fill-rule:nonzero;stroke:none"
         d="m 1663.56,7796.17 c -7.67,0 -15.35,2.93 -21.21,8.78 l -184.52,184.52 c -11.72,11.72 -11.72,30.72 -0.01,42.43 11.72,11.72 30.72,11.71 42.43,0 l 184.53,-184.52 c 11.71,-11.72 11.71,-30.71 0,-42.42 -5.86,-5.86 -13.54,-8.79 -21.22,-8.79" /><path
         id="path40"
         style="fill:#e74c3c;fill-opacity:1;fill-rule:nonzero;stroke:none"
         d="m 1560.18,7545.48 c -7.68,0 -15.36,2.93 -21.21,8.78 l -479.48,479.47 c -11.72,11.72 -11.72,30.71 0,42.43 11.72,11.72 30.72,11.72 42.42,0 l 479.48,-479.47 c 11.72,-11.71 11.72,-30.71 0.01,-42.42 -5.86,-5.86 -13.54,-8.79 -21.22,-8.79" /><path
         id="path42"
         style="fill:#e74c3c;fill-opacity:1;fill-rule:nonzero;stroke:none"
         d="m 1459.37,7292.2 c -7.68,0 -15.36,2.93 -21.22,8.79 l -299.13,299.1 c -11.72,11.72 -11.72,30.72 0,42.43 11.72,11.72 30.72,11.71 42.43,0 l 299.13,-299.1 c 11.71,-11.72 11.71,-30.71 0,-42.43 -5.86,-5.86 -13.54,-8.79 -21.21,-8.79" /><path
         id="path44"
         style="fill:#e74c3c;fill-opacity:1;fill-rule:nonzero;stroke:none"
         d="m 1060.23,7852 c -7.68,0 -15.36,2.93 -21.21,8.79 -11.72,11.71 -11.72,30.7 0,42.42 l 140.16,140.16 c 11.71,11.72 30.71,11.72 42.42,0 11.72,-11.71 11.72,-30.71 0,-42.42 l -140.16,-140.16 c -5.85,-5.86 -13.53,-8.79 -21.21,-8.79" /><path
         id="path46"
         style="fill:#e74c3c;fill-opacity:1;fill-rule:nonzero;stroke:none"
         d="m 1168.42,7606.11 c -7.68,0 -15.36,2.93 -21.21,8.79 -11.72,11.72 -11.72,30.71 0,42.42 l 393.41,393.42 c 11.71,11.72 30.71,11.72 42.42,0 11.72,-11.72 11.72,-30.71 0,-42.42 L 1189.63,7614.9 c -5.86,-5.86 -13.54,-8.79 -21.21,-8.79" /><path
         id="path48"
         style="fill:#e74c3c;fill-opacity:1;fill-rule:nonzero;stroke:none"
         d="m 1261.85,7345.47 c -7.68,0 -15.36,2.93 -21.21,8.79 -11.72,11.72 -11.72,30.71 0,42.42 l 378.66,378.67 c 11.71,11.72 30.71,11.72 42.42,0 11.72,-11.72 11.72,-30.71 0,-42.43 l -378.66,-378.66 c -5.85,-5.86 -13.53,-8.79 -21.21,-8.79" /><path
         id="path50"
         style="fill:#e74c3c;fill-opacity:1;fill-rule:nonzero;stroke:none"
         d="m 1382.24,9002.17 c -4.85,0 -9.82,0.23 -14.92,0.69 -16.5,1.51 -28.66,16.1 -27.16,32.6 1.51,16.5 16.05,28.65 32.6,27.16 33.8,-3.07 51.3,8.28 58.46,37.99 3.88,16.1 20.06,26.04 36.19,22.14 16.11,-3.88 26.02,-20.08 22.14,-36.19 -13.07,-54.23 -51.81,-84.39 -107.31,-84.39" /><path
         id="path52"
         style="fill:#e74c3c;fill-opacity:1;fill-rule:nonzero;stroke:none"
         d="m 6425.63,8156.03 c -64.06,0 -122.65,30.73 -159.29,80.36 -36.65,-49.63 -95.24,-80.36 -159.29,-80.36 -88.16,0 -163.07,57.88 -188.7,137.64 -33.45,-24.25 -74.06,-37.83 -116.19,-37.83 -109.26,0 -198.16,88.89 -198.16,198.16 0,109.27 88.9,198.17 198.16,198.17 16.57,0 30,-13.43 30,-30 0,-16.57 -13.43,-30 -30,-30 -76.18,0 -138.16,-61.98 -138.16,-138.17 0,-76.18 61.98,-138.16 138.16,-138.16 44.43,0 86.46,21.71 112.44,58.09 7.74,10.83 21.68,15.28 34.29,10.89 12.57,-4.39 20.76,-16.53 20.08,-29.84 -0.01,-0.18 -0.06,-1.14 -0.07,-1.32 0,-75.65 61.97,-137.63 138.15,-137.63 59.31,0 111.9,37.82 130.86,94.12 4.11,12.2 15.55,20.42 28.43,20.42 v 0 c 12.88,0 24.32,-8.22 28.43,-20.43 18.95,-56.29 71.54,-94.11 130.86,-94.11 75.92,0 137.74,61.56 138.16,137.39 -0.07,0.82 -0.11,1.57 -0.13,2.33 -0.33,13.17 7.98,25.02 20.48,29.2 12.47,4.17 26.27,-0.29 33.93,-11.01 25.98,-36.38 68.01,-58.1 112.44,-58.1 76.19,0 138.17,61.98 138.17,138.16 0,76.19 -61.98,138.17 -138.17,138.17 -16.57,0 -30,13.43 -30,30 0,16.57 13.43,30 30,30 109.28,0 198.17,-88.9 198.17,-198.17 0,-109.27 -88.89,-198.16 -198.17,-198.16 -42.12,0 -82.73,13.58 -116.17,37.82 -25.64,-79.75 -100.54,-137.63 -188.71,-137.63" /><path
         id="path54"
         style="fill:#e74c3c;fill-opacity:1;fill-rule:nonzero;stroke:none"
         d="m 5798.78,8592.02 c -13.15,0 -25.23,8.72 -28.9,22.02 -13.2,47.82 -19.89,97.5 -19.89,147.67 0,295.25 231.64,535.46 516.37,535.46 284.69,0 516.32,-240.21 516.32,-535.46 0,-49.48 -6.49,-98.45 -19.29,-145.52 -4.34,-16 -20.82,-25.46 -36.82,-21.09 -15.98,4.35 -25.42,20.83 -21.07,36.82 11.39,41.95 17.18,85.62 17.18,129.79 0,262.17 -204.71,475.46 -456.32,475.46 -251.64,0 -456.37,-213.29 -456.37,-475.46 0,-44.78 5.97,-89.09 17.72,-131.7 4.42,-15.97 -4.96,-32.5 -20.93,-36.9 -2.67,-0.74 -5.35,-1.09 -8,-1.09" /><path
         id="path56"
         style="fill:#e74c3c;fill-opacity:1;fill-rule:nonzero;stroke:none"
         d="m 6272.02,7074.86 c -12.11,0 -23.04,7.28 -27.69,18.46 l -234.14,561.94 -256.83,619.14 c -6.35,15.3 0.92,32.86 16.22,39.2 15.3,6.35 32.85,-0.9 39.21,-16.21 l 256.81,-619.09 206.42,-495.44 206.43,495.48 243.44,613.09 c 6.11,15.4 23.56,22.94 38.96,16.81 15.4,-6.12 22.92,-23.56 16.81,-38.95 l -243.64,-613.56 -234.3,-562.41 c -4.66,-11.18 -15.59,-18.46 -27.7,-18.46" /><path
         id="path58"
         style="fill:#e74c3c;fill-opacity:1;fill-rule:nonzero;stroke:none"
         d="m 6591.64,7864.07 c -7.55,0 -15.1,2.83 -20.93,8.51 l -351.11,342 c -11.88,11.56 -12.12,30.56 -0.57,42.43 11.59,11.87 30.56,12.12 42.43,0.55 l 351.11,-342 c 11.87,-11.56 12.12,-30.55 0.56,-42.42 -5.88,-6.04 -13.69,-9.07 -21.49,-9.07" /><path
         id="path60"
         style="fill:#e74c3c;fill-opacity:1;fill-rule:nonzero;stroke:none"
         d="m 6478.52,7589.79 c -7.87,0 -15.72,3.07 -21.61,9.17 l -642.08,666.11 c -11.49,11.93 -11.14,30.93 0.79,42.43 11.93,11.48 30.91,11.15 42.42,-0.79 l 642.08,-666.1 c 11.49,-11.93 11.14,-30.93 -0.78,-42.43 -5.82,-5.61 -13.32,-8.39 -20.82,-8.39" /><path
         id="path62"
         style="fill:#e74c3c;fill-opacity:1;fill-rule:nonzero;stroke:none"
         d="m 6368.21,7312.67 c -7.67,0 -15.35,2.93 -21.21,8.78 l -327.3,327.27 c -11.72,11.72 -11.72,30.71 0,42.43 11.7,11.72 30.7,11.71 42.42,0 l 327.3,-327.27 c 11.72,-11.72 11.72,-30.71 0,-42.42 -5.85,-5.86 -13.53,-8.79 -21.21,-8.79" /><path
         id="path64"
         style="fill:#e74c3c;fill-opacity:1;fill-rule:nonzero;stroke:none"
         d="m 5931.5,7925.16 c -7.79,0 -15.57,3.02 -21.45,9.03 -11.58,11.85 -11.36,30.85 0.49,42.43 l 259.2,253.24 c 11.86,11.57 30.85,11.35 42.42,-0.49 11.58,-11.86 11.36,-30.85 -0.49,-42.43 l -259.2,-253.24 c -5.84,-5.7 -13.41,-8.54 -20.97,-8.54" /><path
         id="path66"
         style="fill:#e74c3c;fill-opacity:1;fill-rule:nonzero;stroke:none"
         d="m 6049.88,7656.13 c -7.68,0 -15.36,2.93 -21.22,8.79 -11.71,11.73 -11.71,30.72 0.02,42.43 l 605.78,605.3 c 11.71,11.72 30.72,11.71 42.42,-0.01 11.71,-11.73 11.71,-30.72 -0.01,-42.43 l -605.79,-605.3 c -5.85,-5.86 -13.52,-8.78 -21.2,-8.78" /><path
         id="path68"
         style="fill:#e74c3c;fill-opacity:1;fill-rule:nonzero;stroke:none"
         d="m 6152.09,7370.95 c -7.68,0 -15.35,2.93 -21.21,8.79 -11.72,11.71 -11.72,30.7 0,42.42 l 414.33,414.32 c 11.72,11.71 30.71,11.71 42.43,-0.01 11.72,-11.71 11.72,-30.7 0,-42.42 L 6173.3,7379.73 c -5.86,-5.85 -13.53,-8.78 -21.21,-8.78" /><path
         id="path70"
         style="fill:#e74c3c;fill-opacity:1;fill-rule:nonzero;stroke:none"
         d="m 6379.8,8503.08 c -15.32,0 -28.39,11.69 -29.83,27.25 -1.52,16.5 10.63,31.11 27.12,32.62 86.04,7.94 147.05,35.21 181.31,81.07 42.6,57.02 29.97,123.93 29.84,124.6 -3.22,16.25 7.35,32.04 23.6,35.26 16.28,3.24 32.04,-7.35 35.25,-23.6 0.76,-3.81 17.77,-94.01 -40.63,-172.17 -44.86,-60.05 -120.18,-95.34 -223.86,-104.9 -0.94,-0.09 -1.87,-0.13 -2.8,-0.13" /><path
         id="path72"
         style="fill:#e74c3c;fill-opacity:1;fill-rule:nonzero;stroke:none"
         d="m 9346.25,8219.68 c -16.57,0 -30,13.43 -30,30 0,2.92 -1.95,9.77 -15.05,22.72 -6.18,6.13 -13.49,12.34 -20.57,18.36 -8.34,7.09 -16.95,14.42 -24.15,21.95 -2.82,2.97 -6.67,6.72 -11.28,11.24 -43.89,42.96 -146.68,143.56 -159.13,285.89 l -0.11,2.62 v 159.07 c 0,184.78 -163.07,329.52 -371.23,329.52 -208.16,0 -371.21,-144.74 -371.21,-329.52 0,-166.98 -18.29,-265.76 -126.65,-409.69 -8.74,-11.58 -19.01,-21.31 -28.94,-30.72 -3.64,-3.45 -7.28,-6.88 -10.71,-10.34 -4.91,-4.93 -10.99,-10.51 -17.56,-16.54 -12.71,-11.64 -46.43,-42.55 -46.43,-54.56 0,-16.57 -13.43,-30 -30,-30 -16.57,0 -30,13.43 -30,30 0,38.41 36.54,71.89 65.88,98.79 5.83,5.34 11.22,10.27 15.58,14.64 3.86,3.88 7.91,7.72 11.98,11.58 8.53,8.06 16.57,15.69 22.28,23.25 98.65,131.03 114.57,217.45 114.57,373.59 0,218.42 189.41,389.52 431.21,389.52 241.81,0 431.23,-171.1 431.23,-389.52 V 8613.8 c 11.04,-119.57 102.2,-208.8 141.21,-246.97 5.2,-5.1 9.53,-9.35 12.73,-12.7 5.03,-5.27 12.11,-11.29 19.6,-17.67 7.93,-6.74 16.13,-13.71 23.91,-21.42 14.09,-13.93 32.84,-35.89 32.84,-65.36 0,-16.57 -13.43,-30 -30,-30" /><path
         id="path74"
         style="fill:#e74c3c;fill-opacity:1;fill-rule:nonzero;stroke:none"
         d="m 8715.31,8021.42 c -272.6,0 -523.28,80.84 -654.2,210.96 -11.74,11.69 -11.8,30.68 -0.12,42.43 11.7,11.75 30.67,11.8 42.43,0.13 120.09,-119.37 354.55,-193.52 611.89,-193.52 253.2,0 485.91,72.44 607.35,189.05 11.95,11.47 30.94,11.1 42.42,-0.86 11.47,-11.95 11.09,-30.94 -0.86,-42.42 -132.18,-126.93 -380.82,-205.77 -648.91,-205.77" /><path
         id="path76"
         style="fill:#e74c3c;fill-opacity:1;fill-rule:nonzero;stroke:none"
         d="m 8581.05,8451.35 c -72.07,0 -130.7,58.63 -130.7,130.7 v 76.53 c 0,16.57 13.43,30 30,30 16.57,0 30,-13.43 30,-30 v -76.53 c 0,-38.98 31.72,-70.7 70.7,-70.7 38.98,0 70.69,31.72 70.69,70.7 v 52.36 c 0,16.57 13.43,30 30,30 16.57,0 30,-13.43 30,-30 v -52.36 c 0,-72.07 -58.62,-130.7 -130.69,-130.7" /><path
         id="path78"
         style="fill:#e74c3c;fill-opacity:1;fill-rule:nonzero;stroke:none"
         d="m 8480.35,8586.04 c -16.57,0 -30,13.43 -30,30 v 43.65 c 0,12.19 -9.92,22.11 -22.12,22.11 h -110.22 c -16.57,0 -30,13.43 -30,30 0,16.56 13.43,30 30,30 h 110.22 c 45.29,0 82.12,-36.84 82.12,-82.11 v -43.65 c 0,-16.57 -13.43,-30 -30,-30" /><path
         id="path80"
         style="fill:#e74c3c;fill-opacity:1;fill-rule:nonzero;stroke:none"
         d="m 8977.67,8586.04 c -16.58,0 -30,13.43 -30,30 v 43.65 c 0,45.27 36.83,82.11 82.12,82.11 h 64.71 c 16.57,0 30,-13.44 30,-30 0,-16.57 -13.43,-30 -30,-30 h -64.71 c -12.2,0 -22.12,-9.92 -22.12,-22.11 v -43.65 c 0,-16.57 -13.43,-30 -30,-30" /><path
         id="path82"
         style="fill:#e74c3c;fill-opacity:1;fill-rule:nonzero;stroke:none"
         d="m 8831.84,8239.76 c -97.73,0 -177.24,78.68 -177.24,175.38 v 225.42 c 0,16.56 13.43,30 30,30 16.57,0 30,-13.44 30,-30 v -225.42 c 0,-63.62 52.59,-115.38 117.24,-115.38 64.67,0 117.29,51.76 117.29,115.38 v 243.2 c 0,16.57 13.43,30 30,30 16.57,0 30,-13.43 30,-30 v -243.2 c 0,-96.7 -79.53,-175.38 -177.29,-175.38" /><path
         id="path84"
         style="fill:#e74c3c;fill-opacity:1;fill-rule:nonzero;stroke:none"
         d="m 8861.03,7074.86 h -309.45 c -106.78,0 -193.76,84.96 -194.7,189.77 l -48.09,429.42 c -153.42,53.68 -258.9,199.07 -258.9,360.32 v 195.78 c 0,16.57 13.43,30 30,30 16.57,0 30,-13.43 30,-30 v -195.78 c 0,-141.43 96.62,-268.45 234.97,-308.9 l 19.17,-5.61 52.84,-473.49 c 0,-72.51 60.42,-131.51 134.71,-131.51 h 309.45 c 74.28,0 134.71,59 134.71,131.51 l 0.26,3.89 61.15,468.25 19.31,5.24 c 142.03,38.52 241.23,166.25 241.23,310.62 v 195.78 c 0,16.57 13.42,30 30,30 16.57,0 30,-13.43 30,-30 v -195.78 c 0,-164.73 -108.46,-311.12 -266.16,-362.74 l -55.8,-427.29 c -1.11,-104.67 -88.02,-189.48 -194.7,-189.48" /><path
         id="path86"
         style="fill:#e74c3c;fill-opacity:1;fill-rule:nonzero;stroke:none"
         d="m 8712.88,7626.49 c -137.27,0 -271.57,21.42 -388.36,61.93 -15.65,5.44 -23.93,22.53 -18.5,38.18 5.42,15.66 22.52,23.94 38.17,18.51 110.54,-38.35 238.03,-58.62 368.69,-58.62 126.17,0 249.89,18.99 357.78,54.92 15.75,5.27 32.72,-3.27 37.95,-18.98 5.24,-15.72 -3.27,-32.71 -18.98,-37.94 -113.94,-37.94 -244.22,-58 -376.75,-58" /><path
         id="path88"
         style="fill:#e74c3c;fill-opacity:1;fill-rule:nonzero;stroke:none"
         d="m 8303.94,7958.89 c -6.29,0 -12.53,-1.68 -18.04,-4.87 -17.3,-9.98 -23.24,-32.17 -13.25,-49.46 6.44,-11.18 18.48,-18.12 31.4,-18.12 6.3,0 12.54,1.68 18.06,4.87 8.38,4.83 14.36,12.64 16.87,21.98 2.5,9.34 1.22,19.09 -3.62,27.47 -6.45,11.18 -18.49,18.13 -31.42,18.13 z m 0.11,-132.45 c -34.29,0 -66.24,18.44 -83.38,48.12 -26.52,45.95 -10.72,104.9 35.23,131.43 14.62,8.43 31.23,12.9 48.04,12.9 34.29,0 66.25,-18.45 83.38,-48.13 12.85,-22.25 16.26,-48.17 9.61,-73 -6.65,-24.82 -22.56,-45.56 -44.82,-58.41 -14.62,-8.45 -31.24,-12.91 -48.06,-12.91" /><path
         id="path90"
         style="fill:#e74c3c;fill-opacity:1;fill-rule:nonzero;stroke:none"
         d="m 9123.51,7958.89 c -6.29,0 -12.53,-1.68 -18.04,-4.87 -17.3,-9.98 -23.24,-32.17 -13.25,-49.46 6.44,-11.18 18.48,-18.12 31.41,-18.12 6.3,0 12.54,1.68 18.06,4.87 17.28,9.98 23.22,32.17 13.25,49.45 -6.45,11.18 -18.49,18.13 -31.43,18.13 z m 0.12,-132.45 c -34.29,0 -66.25,18.44 -83.39,48.12 -26.51,45.94 -10.71,104.9 35.23,131.43 14.62,8.43 31.23,12.9 48.04,12.9 34.3,0 66.26,-18.45 83.39,-48.13 26.52,-45.93 10.73,-104.88 -35.21,-131.41 -14.62,-8.45 -31.24,-12.91 -48.06,-12.91" /><path
         id="path92"
         style="fill:#e74c3c;fill-opacity:1;fill-rule:nonzero;stroke:none"
         d="m 8713.72,7898.18 c -6.29,0 -12.53,-1.68 -18.04,-4.86 -17.29,-9.99 -23.24,-32.18 -13.25,-49.47 6.45,-11.17 18.49,-18.12 31.42,-18.12 6.3,0 12.54,1.69 18.04,4.87 8.38,4.83 14.37,12.64 16.88,21.98 2.5,9.34 1.21,19.09 -3.62,27.47 -6.46,11.19 -18.5,18.13 -31.43,18.13 z m 0.13,-132.45 c -34.31,0 -66.25,18.44 -83.39,48.12 -26.51,45.94 -10.71,104.9 35.22,131.43 14.62,8.44 31.23,12.9 48.04,12.9 34.31,0 66.26,-18.44 83.39,-48.14 12.85,-22.24 16.26,-48.17 9.61,-72.99 -6.65,-24.81 -22.57,-45.56 -44.83,-58.41 -14.61,-8.44 -31.23,-12.91 -48.04,-12.91" /><path
         id="path94"
         style="fill:#e74c3c;fill-opacity:1;fill-rule:nonzero;stroke:none"
         d="m 9046.23,7503.12 h -288.36 c -16.57,0 -30,13.43 -30,30 0,16.56 13.43,30 30,30 h 288.36 c 16.57,0 30,-13.44 30,-30 0,-16.57 -13.43,-30 -30,-30" /><path
         id="path96"
         style="fill:#e74c3c;fill-opacity:1;fill-rule:nonzero;stroke:none"
         d="m 9010.82,7341.23 h -252.95 c -16.57,0 -30,13.43 -30,30 0,16.56 13.43,30 30,30 h 252.95 c 16.57,0 30,-13.44 30,-30 0,-16.57 -13.43,-30 -30,-30" /><path
         id="path98"
         style="fill:#e74c3c;fill-opacity:1;fill-rule:nonzero;stroke:none"
         d="m 8990.59,7179.34 h -232.72 c -16.57,0 -30,13.43 -30,30 0,16.56 13.43,30 30,30 h 232.72 c 16.57,0 30,-13.44 30,-30 0,-16.57 -13.43,-30 -30,-30" /><path
         id="path100"
         style="fill:#e74c3c;fill-opacity:1;fill-rule:nonzero;stroke:none"
         d="m 1373.32,3810.33 v 0 c -29.46,0 -70.9,20.21 -101.02,116.48 l -17.08,54.59 c -39.83,127.26 -104.87,335.56 -144.55,462.92 l -27.66,88.77 c -121.51,90.52 -193.748,233.8 -193.748,385.35 0,16.57 13.433,30 30,30 16.566,0 30,-13.43 30,-30 0,-135.6 66.108,-263.65 176.838,-342.52 5.34,-3.8 9.29,-9.25 11.24,-15.51 l 30.61,-98.24 c 39.68,-127.34 104.7,-335.6 144.53,-462.85 l 17.09,-54.6 c 19.32,-61.77 39.42,-74.39 43.75,-74.39 4.33,-0.01 24.43,12.62 43.76,74.4 l 17.09,54.58 c 40.09,128.08 103.68,336.2 141.75,463.93 l 29.51,98.95 c 0.1,0.3 0.35,1.15 0.45,1.45 1.98,5.93 5.75,11.1 10.8,14.77 108.53,79.01 173.32,206.13 173.32,340.03 0,16.57 13.43,30 30,30 16.56,0 30,-13.43 30,-30 0,-149.59 -70.74,-291.76 -189.75,-382.39 l -26.83,-89.96 c -38.14,-127.94 -101.84,-336.4 -141.99,-464.7 l -17.08,-54.58 c -30.13,-96.27 -71.57,-116.48 -101.03,-116.48" /><path
         id="path102"
         style="fill:#e74c3c;fill-opacity:1;fill-rule:nonzero;stroke:none"
         d="m 1369.44,5831.5 c -1.29,0 -2.58,0.08 -3.89,0.25 -16.43,2.13 -28.03,17.17 -25.9,33.6 0.72,5.56 1.4,11.17 2.08,16.8 6.26,51.37 13.36,109.59 50.92,151.17 53.69,59.43 145.73,64.08 205.15,10.4 49.99,-45.17 53.93,-122.59 8.78,-172.6 -18.58,-20.56 -44.05,-32.67 -71.74,-34.07 -27.64,-1.39 -54.26,8.05 -74.83,26.63 -36.41,32.89 -39.28,89.28 -6.4,125.71 11.11,12.3 30.08,13.27 42.38,2.17 12.3,-11.1 13.26,-30.07 2.16,-42.37 -10.72,-11.88 -9.79,-30.26 2.08,-40.99 8.68,-7.83 19.94,-11.85 31.57,-11.23 11.68,0.59 22.41,5.7 30.25,14.36 22.98,25.46 20.98,64.88 -4.47,87.87 -34.87,31.5 -88.88,28.76 -120.42,-6.11 -24.81,-27.47 -30.43,-73.59 -35.87,-118.19 -0.7,-5.79 -1.4,-11.55 -2.14,-17.24 -1.95,-15.13 -14.86,-26.16 -29.71,-26.16" /><path
         id="path104"
         style="fill:#e74c3c;fill-opacity:1;fill-rule:nonzero;stroke:none"
         d="m 1568.98,5119.39 v 0 c 15.18,0 27.96,-11.33 29.78,-26.4 10.23,-84.75 82.33,-148.65 167.73,-148.65 93.25,0 169.11,75.87 169.11,169.12 0,65.41 -38.47,125.56 -98.01,153.24 -12.57,5.85 -19.5,19.54 -16.76,33.13 13.52,67.11 5.63,131.62 -22.21,181.63 -34.4,61.79 -86.49,89.27 -164.84,115.85 -106.85,36.25 -185.08,88.77 -239.17,160.56 -8.4,11.16 -16.01,23.26 -23.15,35.72 -7.14,-12.46 -14.74,-24.56 -23.15,-35.72 -54.09,-71.79 -132.32,-124.31 -239.17,-160.56 -78.35,-26.58 -130.445,-54.06 -164.839,-115.85 -27.84,-50.02 -35.727,-114.53 -22.211,-181.63 2.738,-13.59 -4.192,-27.28 -16.758,-33.13 -59.539,-27.68 -98.012,-87.83 -98.012,-153.24 0,-93.25 75.864,-169.12 169.11,-169.12 85.4,0 157.5,63.9 167.73,148.65 1.82,15.07 14.6,26.4 29.78,26.4 15.18,0 27.96,-11.33 29.79,-26.4 10.23,-84.75 82.34,-148.65 167.73,-148.65 85.39,0 157.5,63.9 167.73,148.65 1.83,15.07 14.61,26.4 29.79,26.4 z m 197.51,-235.05 c -83.42,0 -157.48,45 -197.52,113.14 -40.04,-68.14 -114.1,-113.14 -197.51,-113.14 -83.41,0 -157.47,45 -197.51,113.14 -40.04,-68.14 -114.1,-113.14 -197.52,-113.14 -126.332,0 -229.11,102.78 -229.11,229.12 0,80.86 43.328,155.77 112.121,196.76 -10.437,73.22 0.84,143.66 32.438,200.42 43.609,78.34 108.086,112.99 197.981,143.49 95.07,32.25 163.93,77.99 210.53,139.84 13.76,18.26 25.56,40.88 38.05,64.83 3.02,5.8 6.06,11.62 9.15,17.42 7.14,13.4 23.15,19.37 37.32,13.89 12.55,-4.86 20.13,-17.36 19.07,-30.38 l 0.47,-0.89 c 12.51,-23.97 24.33,-46.61 38.08,-64.87 46.6,-61.85 115.46,-107.59 210.53,-139.84 89.89,-30.5 154.37,-65.15 197.98,-143.49 31.6,-56.75 42.88,-127.19 32.44,-200.42 68.79,-40.99 112.12,-115.9 112.12,-196.76 0,-126.34 -102.78,-229.12 -229.11,-229.12" /><path
         id="path106"
         style="fill:#e74c3c;fill-opacity:1;fill-rule:nonzero;stroke:none"
         d="m 1109.52,4812.85 c -6.16,0 -12.25,-1.64 -17.64,-4.75 -16.92,-9.77 -22.74,-31.5 -12.97,-48.41 6.31,-10.94 18.09,-17.74 30.74,-17.74 6.16,0 12.26,1.65 17.66,4.77 8.21,4.74 14.07,12.37 16.52,21.51 2.45,9.13 1.19,18.68 -3.55,26.89 -6.31,10.93 -18.1,17.73 -30.76,17.73 z m 0.13,-130.9 c -34.02,0 -65.72,18.29 -82.71,47.75 -26.3,45.54 -10.63,104.03 34.93,130.36 14.51,8.37 30.98,12.79 47.65,12.79 34.02,0 65.72,-18.29 82.73,-47.73 12.75,-22.08 16.13,-47.81 9.54,-72.42 -6.6,-24.62 -22.4,-45.2 -44.48,-57.94 -14.49,-8.37 -30.98,-12.81 -47.66,-12.81" /><path
         id="path108"
         style="fill:#e74c3c;fill-opacity:1;fill-rule:nonzero;stroke:none"
         d="m 1364.52,4772.85 c -6.16,0 -12.25,-1.64 -17.64,-4.75 -16.92,-9.77 -22.74,-31.5 -12.97,-48.41 6.31,-10.94 18.09,-17.74 30.74,-17.74 6.16,0 12.26,1.65 17.66,4.77 8.21,4.74 14.07,12.37 16.52,21.51 2.45,9.13 1.19,18.68 -3.55,26.89 -6.31,10.93 -18.1,17.73 -30.76,17.73 z m 0.13,-130.9 c -34.02,0 -65.72,18.29 -82.71,47.75 -26.3,45.54 -10.63,104.03 34.93,130.36 14.51,8.37 30.98,12.79 47.65,12.79 34.02,0 65.72,-18.29 82.73,-47.73 12.75,-22.08 16.13,-47.81 9.54,-72.42 -6.6,-24.62 -22.4,-45.2 -44.48,-57.94 -14.49,-8.37 -30.98,-12.81 -47.66,-12.81" /><path
         id="path110"
         style="fill:#e74c3c;fill-opacity:1;fill-rule:nonzero;stroke:none"
         d="m 1619.52,4812.85 c -6.16,0 -12.25,-1.64 -17.64,-4.75 -16.92,-9.77 -22.74,-31.5 -12.97,-48.41 6.31,-10.94 18.09,-17.74 30.74,-17.74 6.16,0 12.26,1.65 17.66,4.77 8.21,4.74 14.07,12.37 16.52,21.51 2.45,9.13 1.19,18.68 -3.55,26.89 -6.31,10.93 -18.1,17.73 -30.76,17.73 z m 0.13,-130.9 c -34.02,0 -65.72,18.29 -82.71,47.75 -26.3,45.54 -10.63,104.03 34.93,130.36 14.51,8.37 30.98,12.79 47.65,12.79 34.02,0 65.72,-18.29 82.73,-47.73 12.75,-22.08 16.13,-47.81 9.54,-72.42 -6.6,-24.62 -22.4,-45.2 -44.48,-57.94 -14.49,-8.37 -30.98,-12.81 -47.66,-12.81" /><path
         id="path112"
         style="fill:#e74c3c;fill-opacity:1;fill-rule:nonzero;stroke:none"
         d="m 1629.59,4522.4 h -240 c -16.56,0 -30,13.43 -30,30 0,16.57 13.44,30 30,30 h 240 c 16.57,0 30,-13.43 30,-30 0,-16.57 -13.43,-30 -30,-30" /><path
         id="path114"
         style="fill:#e74c3c;fill-opacity:1;fill-rule:nonzero;stroke:none"
         d="m 1564.59,4362.4 h -175 c -16.56,0 -30,13.43 -30,30 0,16.57 13.44,30 30,30 h 175 c 16.57,0 30,-13.43 30,-30 0,-16.57 -13.43,-30 -30,-30" /><path
         id="path116"
         style="fill:#e74c3c;fill-opacity:1;fill-rule:nonzero;stroke:none"
         d="m 1534.59,4202.4 h -145 c -16.56,0 -30,13.43 -30,30 0,16.57 13.44,30 30,30 h 145 c 16.57,0 30,-13.43 30,-30 0,-16.57 -13.43,-30 -30,-30" /><path
         id="path118"
         style="fill:#e74c3c;fill-opacity:1;fill-rule:nonzero;stroke:none"
         d="m 1484.59,4042.4 h -90 c -16.56,0 -30,13.43 -30,30 0,16.57 13.44,30 30,30 h 90 c 16.57,0 30,-13.43 30,-30 0,-16.57 -13.43,-30 -30,-30" /><path
         id="path120"
         style="fill:#e74c3c;fill-opacity:1;fill-rule:nonzero;stroke:none"
         d="m 1362.73,5167.62 c -304.53,0 -474.578,96.17 -481.66,100.26 -14.351,8.29 -19.261,26.64 -10.98,40.99 8.273,14.32 26.594,19.25 40.933,11 2.047,-1.16 164.947,-92.25 451.707,-92.25 289.38,0 471.12,91.98 472.92,92.91 14.73,7.59 32.82,1.8 40.41,-12.92 7.6,-14.72 1.82,-32.82 -12.91,-40.41 -7.89,-4.07 -196.63,-99.58 -500.42,-99.58" /><path
         id="path122"
         style="fill:#e74c3c;fill-opacity:1;fill-rule:nonzero;stroke:none"
         d="m 6259.53,5991.53 c -31.84,0 -66.98,-43.39 -93.96,-116.05 l -49.65,-133.66 c -67.18,-180.87 -174.44,-476.61 -239.08,-659.25 l -71.45,-201.82 c -29.66,-83.78 -24.4,-163.52 14.4,-218.8 33.28,-47.41 89.32,-73.76 157.81,-74.2 l 582.61,-3.74 c 67.74,0 122.72,25.39 154.82,71.48 37.51,53.87 41.46,132.23 10.86,215.03 l -79.03,213.7 c -66.9,180.89 -176.57,476.82 -243.72,657.6 l -49.64,133.67 c -26.99,72.66 -62.11,116.04 -93.97,116.04 z m 300.68,-1467.52 -2.2,0.01 -580.8,3.73 c -88.43,0.57 -161.78,35.98 -206.53,99.73 -50.1,71.36 -58.07,170.98 -21.85,273.29 l 71.44,201.82 c 64.74,182.89 172.13,479.02 239.4,660.12 l 49.65,133.66 c 50.13,135 115.63,155.16 150.21,155.16 34.58,0 100.08,-20.16 150.22,-155.15 l 49.64,-133.67 c 67.15,-180.8 176.84,-476.77 243.74,-657.68 l 79.03,-213.7 c 37.52,-101.48 30.99,-199.92 -17.89,-270.13 -43.64,-62.66 -116.12,-97.19 -204.06,-97.19" /><path
         id="path124"
         style="fill:#e74c3c;fill-opacity:1;fill-rule:nonzero;stroke:none"
         d="m 6527.89,5439.69 h -534.45 c -16.57,0 -30,13.43 -30,30 0,16.57 13.43,30 30,30 h 534.45 c 16.57,0 30,-13.43 30,-30 0,-16.57 -13.43,-30 -30,-30" /><path
         id="path126"
         style="fill:#e74c3c;fill-opacity:1;fill-rule:nonzero;stroke:none"
         d="m 6686.06,4978.55 h -838.43 c -16.58,0 -30,13.44 -30,30 0,16.57 13.42,30 30,30 h 838.43 c 16.58,0 30,-13.43 30,-30 0,-16.56 -13.42,-30 -30,-30" /><path
         id="path128"
         style="fill:#e74c3c;fill-opacity:1;fill-rule:nonzero;stroke:none"
         d="m 6216.53,3810.33 c -87.16,0 -158.07,70.91 -158.07,158.07 v 577.69 c 0,16.58 13.42,30 30,30 16.57,0 30,-13.42 30,-30 V 3968.4 c 0,-54.07 43.99,-98.07 98.07,-98.07 54.09,0 98.09,44 98.09,98.07 v 577.69 c 0,16.58 13.43,30 30,30 16.57,0 30,-13.42 30,-30 V 3968.4 c 0,-87.16 -70.92,-158.07 -158.09,-158.07" /><path
         id="path130"
         style="fill:#e74c3c;fill-opacity:1;fill-rule:nonzero;stroke:none"
         d="m 6337.05,3810.33 c -16.57,0 -30,13.43 -30,30 0,16.57 13.43,30 30,30 54.08,0 98.09,44 98.09,98.07 v 577.69 c 0,16.58 13.42,30 30,30 16.57,0 30,-13.42 30,-30 V 3968.4 c 0,-87.16 -70.92,-158.07 -158.09,-158.07" /><path
         id="path132"
         style="fill:#e74c3c;fill-opacity:1;fill-rule:nonzero;stroke:none"
         d="m 6314.47,3810.33 h -75.41 c -16.57,0 -30,13.43 -30,30 0,16.57 13.43,30 30,30 h 75.41 c 16.57,0 30,-13.43 30,-30 0,-16.57 -13.43,-30 -30,-30" /><path
         id="path134"
         style="fill:#e74c3c;fill-opacity:1;fill-rule:nonzero;stroke:none"
         d="m 6553.65,5285.98 h -590 c -16.57,0 -30,13.43 -30,30 0,16.56 13.43,30 30,30 h 590 c 16.57,0 30,-13.44 30,-30 0,-16.57 -13.43,-30 -30,-30" /><path
         id="path136"
         style="fill:#e74c3c;fill-opacity:1;fill-rule:nonzero;stroke:none"
         d="m 6643.65,5132.27 h -745 c -16.57,0 -30,13.43 -30,30 0,16.56 13.43,30 30,30 h 745 c 16.57,0 30,-13.44 30,-30 0,-16.57 -13.43,-30 -30,-30" /><path
         id="path138"
         style="fill:#e74c3c;fill-opacity:1;fill-rule:nonzero;stroke:none"
         d="m 900.391,2499.07 c -191.973,0 -348.157,-173.48 -348.157,-386.74 0,-103.82 36.571,-201.32 102.977,-274.52 59.281,-65.3 481.049,-459.38 579.059,-550.82 196.68,180.28 549.42,509.1 601.11,578.02 51.94,69.25 80.55,157.08 80.55,247.32 0,213.26 -156.18,386.74 -348.16,386.74 -128.23,0 -245.75,-78.03 -306.7,-203.66 -5.01,-10.34 -15.49,-16.9 -26.99,-16.9 -11.49,0 -21.97,6.56 -26.99,16.9 -60.95,125.63 -178.47,203.66 -306.699,203.66 z M 1234.08,1216.15 c -7.34,0 -14.69,2.69 -20.44,8.05 -21.79,20.29 -534.367,497.84 -602.863,573.29 -76.445,84.27 -118.543,196.07 -118.543,314.84 0,246.33 183.098,446.74 408.157,446.74 134.059,0 257.769,-71.33 333.689,-189.35 75.92,118.02 199.62,189.35 333.69,189.35 225.06,0 408.16,-200.41 408.16,-446.74 0,-103.13 -32.87,-203.76 -92.56,-283.32 -70.23,-93.65 -606.26,-584.16 -629.04,-605 -5.74,-5.24 -12.99,-7.86 -20.25,-7.86" /><path
         id="path140"
         style="fill:#e74c3c;fill-opacity:1;fill-rule:nonzero;stroke:none"
         d="m 1488.38,1213.34 h -250.4 c -16.57,0 -30,13.43 -30,30 0,16.57 13.43,30 30,30 h 250.4 c 16.57,0 30,-13.43 30,-30 0,-16.57 -13.43,-30 -30,-30" /><path
         id="path142"
         style="fill:#e74c3c;fill-opacity:1;fill-rule:nonzero;stroke:none"
         d="m 1349.78,2436.62 c -7.53,0 -15.06,2.81 -20.89,8.48 -58.56,56.86 -100,56.76 -147.85,56.69 l -5.89,-0.01 -276.08,0.01 c -16.566,0 -30,13.42 -30,30 0,16.57 13.434,30 30,30 h 281.85 c 53.4,-0.04 113.7,0.21 189.76,-73.65 11.89,-11.54 12.17,-30.53 0.63,-42.42 -5.89,-6.05 -13.7,-9.1 -21.53,-9.1" /><path
         id="path144"
         style="fill:#e74c3c;fill-opacity:1;fill-rule:nonzero;stroke:none"
         d="m 1508.85,1216.15 c -8.13,0 -16.23,3.28 -22.15,9.76 -11.18,12.22 -10.33,31.2 1.89,42.38 191.57,175.19 568.01,525.35 621.53,596.72 51.96,69.26 80.56,157.09 80.56,247.32 0,213.26 -156.18,386.74 -348.16,386.74 l -2.1,0.08 -37.67,2.64 h -231.51 c -16.57,0 -30,13.42 -30,30 0,16.57 13.43,30 30,30 l 234.67,-0.08 37.68,-2.64 c 224.57,-0.63 407.09,-200.8 407.09,-446.74 0,-103.13 -32.87,-203.75 -92.56,-283.32 -70.23,-93.65 -606.25,-584.16 -629.04,-605 -5.75,-5.26 -13.01,-7.86 -20.23,-7.86" /><path
         id="path146"
         style="fill:#e74c3c;fill-opacity:1;fill-rule:nonzero;stroke:none"
         d="m 1266.34,530 c -86.71,0 -157.26,70.539 -157.26,157.25 v 643.94 c 0,16.57 13.43,30 30,30 16.57,0 30,-13.43 30,-30 V 687.25 c 0,-53.629 43.63,-97.25 97.26,-97.25 53.63,0 97.25,43.621 97.25,97.25 v 537.03 c 0,16.57 13.44,30 30,30 16.57,0 30,-13.43 30,-30 V 687.25 C 1423.59,600.539 1353.05,530 1266.34,530" /><path
         id="path148"
         style="fill:#e74c3c;fill-opacity:1;fill-rule:nonzero;stroke:none"
         d="m 1386.06,530 c -16.56,0 -30,13.43 -30,30 0,16.57 13.44,30 30,30 53.64,0 97.27,43.621 97.27,97.25 v 537.03 c 0,16.57 13.43,30 30,30 16.57,0 30,-13.43 30,-30 V 687.25 C 1543.33,600.539 1472.78,530 1386.06,530" /><path
         id="path150"
         style="fill:#e74c3c;fill-opacity:1;fill-rule:nonzero;stroke:none"
         d="m 1363.63,530 h -74.92 c -16.57,0 -30,13.43 -30,30 0,16.57 13.43,30 30,30 h 74.92 c 16.57,0 30,-13.43 30,-30 0,-16.57 -13.43,-30 -30,-30" /><path
         id="path152"
         style="fill:#e74c3c;fill-opacity:1;fill-rule:nonzero;stroke:none"
         d="m 3509.6,4718.52 c -217.19,0 -393.89,176.69 -393.89,393.88 0,217.18 176.7,393.87 393.89,393.87 131.06,0 253.15,-64.9 326.61,-173.63 9.27,-13.72 5.66,-32.38 -8.07,-41.65 -13.74,-9.28 -32.38,-5.66 -41.65,8.07 -62.28,92.18 -165.79,147.21 -276.89,147.21 -184.11,0 -333.89,-149.77 -333.89,-333.87 0,-184.1 149.78,-333.88 333.89,-333.88 117.13,0 223.63,59.68 284.9,159.65 8.66,14.13 27.15,18.56 41.25,9.91 14.13,-8.66 18.57,-27.13 9.91,-41.25 -72.27,-117.91 -197.89,-188.31 -336.06,-188.31" /><path
         id="path154"
         style="fill:#e74c3c;fill-opacity:1;fill-rule:nonzero;stroke:none"
         d="m 4128.21,5446.27 c -184.1,0 -333.88,-149.77 -333.88,-333.87 0,-184.1 149.78,-333.88 333.88,-333.88 184.11,0 333.89,149.78 333.89,333.88 0,184.1 -149.78,333.87 -333.89,333.87 z m 0,-727.75 c -217.18,0 -393.88,176.69 -393.88,393.88 0,217.18 176.7,393.87 393.88,393.87 217.19,0 393.89,-176.69 393.89,-393.87 0,-217.19 -176.7,-393.88 -393.89,-393.88" /><path
         id="path156"
         style="fill:#e74c3c;fill-opacity:1;fill-rule:nonzero;stroke:none"
         d="m 3467.89,5443.94 c -13.18,0 -25.26,8.75 -28.92,22.08 -9.26,33.82 -13.96,68.9 -13.96,104.26 0,217.19 176.7,393.89 393.9,393.89 217.19,0 393.88,-176.7 393.88,-393.89 0,-34.23 -4.41,-68.23 -13.1,-101.06 -4.24,-16.03 -20.68,-25.57 -36.67,-21.32 -16.02,4.23 -25.57,20.65 -21.33,36.67 7.37,27.82 11.1,56.66 11.1,85.71 0,184.11 -149.78,333.89 -333.88,333.89 -184.12,0 -333.9,-149.78 -333.9,-333.89 0,-30.01 3.98,-59.75 11.84,-88.41 4.37,-15.98 -5.03,-32.48 -21.01,-36.86 -2.66,-0.72 -5.32,-1.07 -7.95,-1.07" /><path
         id="path158"
         style="fill:#e74c3c;fill-opacity:1;fill-rule:nonzero;stroke:none"
         d="m 3179.81,5111.95 c 15.73,-338.9 296.37,-609.78 639.1,-609.78 342.72,0 623.37,270.88 639.09,609.78 z m 639.1,-669.78 c -385.87,0 -699.79,313.92 -699.79,699.78 v 30 h 1399.57 v -30 c 0,-385.86 -313.92,-699.78 -699.78,-699.78" /><path
         id="path160"
         style="fill:#e74c3c;fill-opacity:1;fill-rule:nonzero;stroke:none"
         d="m 3818.91,4036.19 c -16.57,0 -30,13.43 -30,30 v 405.98 c 0,16.57 13.43,30 30,30 16.56,0 30,-13.43 30,-30 v -405.98 c 0,-16.57 -13.44,-30 -30,-30" /><path
         id="path162"
         style="fill:#e74c3c;fill-opacity:1;fill-rule:nonzero;stroke:none"
         d="m 3816.24,4011.64 c -34.69,0 -68.08,-8.22 -91.63,-22.54 l -25.25,-15.4 c -45.28,-27.52 -112.06,-68.98 -166.46,-103.27 l 568.71,0.56 c -55.49,33.87 -123.04,75.07 -168.47,102.69 l -25.31,15.43 c -23.52,14.31 -56.91,22.53 -91.59,22.53 z m -386.53,-201.31 c -14.17,0 -26.4,9.9 -29.35,23.76 -2.67,12.6 2.99,25.34 13.77,31.88 l 43.36,27.69 c 57.56,36.78 152.08,95.68 210.67,131.29 l 25.25,15.39 c 33.18,20.19 76.79,31.3 122.83,31.3 46.04,0 89.65,-11.11 122.79,-31.29 l 25.31,-15.42 c 58.98,-35.85 155.3,-94.64 214.07,-130.55 l 45.34,-27.69 c 11.46,-7 16.87,-20.77 13.24,-33.7 -3.64,-12.94 -15.42,-21.89 -28.86,-21.9 l -778.39,-0.76 c -0.01,0 -0.02,0 -0.03,0" /><path
         id="path164"
         style="fill:#e74c3c;fill-opacity:1;fill-rule:nonzero;stroke:none"
         d="m 8381.8,5342.07 c -156.06,0 -283.01,-126.97 -283.01,-283.03 0,-156.05 126.95,-283 283.01,-283 156.05,0 283.01,126.95 283.01,283 0,156.06 -126.96,283.03 -283.01,283.03 z m 0,-626.03 c -189.13,0 -343.01,153.87 -343.01,343 0,189.15 153.88,343.03 343.01,343.03 189.14,0 343.01,-153.88 343.01,-343.03 0,-189.13 -153.87,-343 -343.01,-343" /><path
         id="path166"
         style="fill:#e74c3c;fill-opacity:1;fill-rule:nonzero;stroke:none"
         d="m 8440.23,4788.73 c -146.38,0 -265.48,118.42 -265.48,263.98 0,119.75 97.96,217.17 218.38,217.17 99.65,0 180.72,-80.63 180.72,-179.74 0,-82.6 -67.54,-149.79 -150.57,-149.79 -69.74,0 -126.46,56.44 -126.46,125.82 0,58.83 48.07,106.68 107.16,106.68 16.58,0 30,-13.43 30,-30 0,-16.57 -13.42,-30 -30,-30 -26,0 -47.16,-20.94 -47.16,-46.68 0,-36.29 29.81,-65.82 66.46,-65.82 49.94,0 90.57,40.28 90.57,89.79 0,66.03 -54.15,119.74 -120.72,119.74 -87.33,0 -158.38,-70.5 -158.38,-157.17 0,-112.48 92.17,-203.98 205.48,-203.98 70.65,0 137.06,27.33 187.02,76.96 11.73,11.69 30.74,11.64 42.42,-0.13 11.68,-11.75 11.62,-30.75 -0.14,-42.43 -61.27,-60.87 -142.7,-94.4 -229.3,-94.4" /><path
         id="path168"
         style="fill:#e74c3c;fill-opacity:1;fill-rule:nonzero;stroke:none"
         d="m 9045.46,5332.59 c -149.06,0 -273.01,-116.69 -282.17,-265.64 -4.64,-75.46 20.38,-148.21 70.45,-204.84 50.07,-56.64 119.2,-90.38 194.65,-95.02 156.86,-9.58 290.33,110.28 299.86,265.1 4.64,75.46 -20.38,148.21 -70.45,204.84 -50.08,56.63 -119.21,90.38 -194.66,95.02 -5.93,0.36 -11.81,0.54 -17.68,0.54 z m 0.62,-626.05 c -7.08,0 -14.2,0.23 -21.37,0.67 -91.45,5.61 -175.24,46.51 -235.92,115.15 -60.68,68.65 -91.01,156.82 -85.38,248.27 11.53,187.62 173.61,333.05 363.42,321.3 91.44,-5.62 175.23,-46.51 235.91,-115.16 60.7,-68.64 91.02,-156.8 85.39,-248.26 -11.1,-180.54 -161.34,-321.97 -342.05,-321.97" /><path
         id="path170"
         style="fill:#e74c3c;fill-opacity:1;fill-rule:nonzero;stroke:none"
         d="m 9035.33,4839.39 c -4.59,0 -9.2,0.15 -13.82,0.43 -48.13,2.95 -92.26,24.38 -124.24,60.32 -32.04,35.99 -48.05,82.22 -45.1,130.18 5.07,82.44 76.79,145.35 159.47,140.27 69.61,-4.3 122.77,-64.13 118.51,-133.37 -1.75,-28.47 -14.54,-54.55 -36.03,-73.42 -21.43,-18.84 -48.88,-28.21 -77.49,-26.48 -16.53,1.02 -29.11,15.25 -28.09,31.79 1.01,16.53 15.29,29.05 31.78,28.1 12.49,-0.75 24.75,3.37 34.2,11.66 9.39,8.25 14.98,19.63 15.74,32.03 2.23,36.23 -25.72,67.54 -62.3,69.8 -49.71,2.93 -92.86,-34.65 -95.91,-84.06 -1.95,-31.89 8.71,-62.66 30.04,-86.62 21.38,-24.01 50.89,-38.33 83.11,-40.31 42.22,-2.55 82.98,11.29 114.69,39.13 31.63,27.79 50.47,66.15 53.05,108.02 6.9,112.26 -79.49,209.24 -192.6,216.2 -70.42,4.29 -138.46,-18.86 -191.37,-65.33 -12.44,-10.93 -31.39,-9.7 -42.33,2.74 -10.94,12.45 -9.71,31.41 2.74,42.34 64.88,56.99 148.08,85.46 234.65,80.13 146.12,-8.98 257.73,-134.49 248.79,-279.76 -3.55,-57.94 -29.6,-111 -73.34,-149.42 -40.21,-35.32 -90.94,-54.37 -144.15,-54.37" /><path
         id="path172"
         style="fill:#e74c3c;fill-opacity:1;fill-rule:nonzero;stroke:none"
         d="m 8713.98,5917.59 c -110.02,0 -210.93,-64.5 -257.08,-164.33 -65.48,-141.65 -3.52,-310.17 138.13,-375.65 37.61,-17.39 77.5,-26.2 118.57,-26.2 110.02,-0.01 210.93,64.5 257.07,164.34 65.49,141.64 3.52,310.16 -138.14,375.65 -37.6,17.38 -77.49,26.19 -118.55,26.19 z m -0.37,-626.18 c -0.01,0 -0.01,0 -0.02,0 -49.82,0 -98.19,10.67 -143.74,31.73 -171.68,79.37 -246.78,283.61 -167.41,455.29 55.92,120.99 178.2,199.16 311.54,199.16 49.82,0 98.18,-10.68 143.73,-31.73 171.68,-79.37 246.79,-283.61 167.43,-455.29 -55.92,-120.99 -178.21,-199.16 -311.53,-199.16" /><path
         id="path174"
         style="fill:#e74c3c;fill-opacity:1;fill-rule:nonzero;stroke:none"
         d="m 8711.76,5429.15 c -30.92,0 -61.72,6.71 -90.6,20.06 -64.03,29.59 -112.63,82.5 -136.84,148.99 -24.18,66.4 -21.12,138.41 8.62,202.75 36.34,78.62 100.94,138.47 181.9,168.54 15.47,5.75 32.79,-2.14 38.57,-17.68 5.76,-15.54 -2.15,-32.8 -17.69,-38.57 -66,-24.51 -118.67,-73.33 -148.31,-137.46 -23.04,-49.86 -25.43,-105.64 -6.71,-157.06 18.69,-51.35 56.21,-92.21 105.64,-115.05 38.07,-17.61 80.81,-19.23 120.25,-4.56 39.54,14.69 71.11,43.94 88.87,82.38 27.93,60.41 1.89,132.11 -58.03,159.82 -44.93,20.75 -98.55,0.79 -119.52,-44.54 -15.37,-33.26 -1.07,-72.71 31.87,-87.94 23.37,-10.81 51.26,-0.37 62.17,23.23 6.97,15.03 24.8,21.59 39.83,14.63 15.03,-6.95 21.58,-24.78 14.63,-39.82 -24.8,-53.64 -88.43,-77.18 -141.81,-52.5 -62.98,29.11 -90.4,104.28 -61.15,167.58 34.84,75.35 124.17,108.48 199.16,73.82 89.95,-41.59 129.12,-149.01 87.32,-239.45 -24.46,-52.92 -67.95,-93.21 -122.45,-113.45 -24.65,-9.16 -50.22,-13.72 -75.72,-13.72" /><path
         id="path176"
         style="fill:#e74c3c;fill-opacity:1;fill-rule:nonzero;stroke:none"
         d="m 8717.96,3810.33 c -32.51,-0.01 -78.46,22.07 -112.75,127.27 l -34.24,105.06 c -46.33,142.1 -122,374.71 -168.14,516.91 l -54.51,167.97 c -5.12,15.75 3.52,32.67 19.28,37.79 15.71,5.1 32.67,-3.5 37.79,-19.28 l 54.51,-167.96 c 46.14,-142.18 121.79,-374.76 168.12,-516.84 l 34.24,-105.06 c 22.13,-67.92 46.11,-85.87 55.69,-85.86 9.59,0 33.55,17.94 55.69,85.86 l 34.24,105.06 c 46.16,141.59 120.15,373.99 164.91,518.09 l 49.28,158.6 c 4.91,15.83 21.77,24.65 37.55,19.76 15.83,-4.93 24.67,-21.73 19.76,-37.55 l -49.28,-158.62 c -44.85,-144.3 -118.94,-377.08 -165.17,-518.87 l -34.24,-105.06 c -34.28,-105.19 -80.23,-127.27 -112.73,-127.27" /><path
         id="path178"
         style="fill:#e74c3c;fill-opacity:1;fill-rule:nonzero;stroke:none"
         d="m 3817.38,867.43 c -230.73,0 -418.45,187.72 -418.45,418.45 l 0.09,14.39 v 618.76 c 0,26.18 -6.06,51.16 -18,74.21 -7.62,14.72 -1.87,32.81 12.84,40.44 14.7,7.61 32.81,1.87 40.44,-12.84 16.17,-31.23 24.72,-66.44 24.72,-101.81 l -0.09,-633.34 c 0,-197.46 160.8,-358.26 358.45,-358.26 197.66,0 358.46,160.8 358.46,358.45 l 0.1,14.4 v 618.75 c 0,35.13 8.43,70.11 24.38,101.17 7.58,14.73 25.65,20.52 40.4,12.96 14.73,-7.56 20.54,-25.65 12.97,-40.39 -11.78,-22.93 -17.75,-47.73 -17.75,-73.74 l -0.1,-633.35 c 0,-230.53 -187.71,-418.25 -418.46,-418.25" /><path
         id="path180"
         style="fill:#e74c3c;fill-opacity:1;fill-rule:nonzero;stroke:none"
         d="m 3627.72,530.16 c -11.41,0 -22.31,6.539 -27.34,17.61 -6.84,15.089 -0.17,32.859 14.92,39.71 52.85,23.981 88.37,92.11 88.37,169.512 0,53.629 -17.25,103.988 -47.33,138.18 -10.94,12.437 -9.73,31.391 2.71,42.328 12.43,10.941 31.39,9.73 42.34,-2.711 39.58,-44.988 62.28,-109.789 62.28,-177.797 0,-100.531 -49.66,-190.601 -123.57,-224.14 -4.03,-1.821 -8.23,-2.692 -12.38,-2.692" /><path
         id="path182"
         style="fill:#e74c3c;fill-opacity:1;fill-rule:nonzero;stroke:none"
         d="m 4007.24,530.16 c -4.14,0 -8.35,0.871 -12.38,2.692 -73.91,33.539 -123.57,123.609 -123.57,224.14 0,68 22.7,132.809 62.28,177.797 10.95,12.441 29.92,13.641 42.34,2.723 12.44,-10.949 13.65,-29.903 2.71,-42.34 -30.08,-34.203 -47.33,-84.563 -47.33,-138.18 0,-77.402 35.51,-145.531 88.37,-169.512 15.09,-6.851 21.77,-24.621 14.92,-39.71 -5.02,-11.071 -15.93,-17.61 -27.34,-17.61" /><path
         id="path184"
         style="fill:#e74c3c;fill-opacity:1;fill-rule:nonzero;stroke:none"
         d="m 4117.55,530 h -615.59 c -16.56,0 -30,13.43 -30,30 0,16.57 13.44,30 30,30 h 615.59 c 16.57,0 30,-13.43 30,-30 0,-16.57 -13.43,-30 -30,-30" /><path
         id="path186"
         style="fill:#e74c3c;fill-opacity:1;fill-rule:nonzero;stroke:none"
         d="m 3693.16,2000.41 c -6.53,0 -13.11,2.12 -18.62,6.5 -32.36,25.68 -60.71,55.86 -84.26,89.7 -48.91,70.29 -74.76,152.78 -74.76,238.55 0,188.49 154.27,341.84 343.87,341.84 155,0 281.1,-125.37 281.1,-279.48 0,-126.59 -103.57,-229.58 -230.87,-229.58 -105.16,0 -190.71,85.08 -190.71,189.65 0,86.98 71.13,157.75 158.56,157.75 16.57,0 30,-13.43 30,-30 0,-16.57 -13.43,-30 -30,-30 -54.35,0 -98.56,-43.85 -98.56,-97.75 0,-71.49 58.63,-129.65 130.71,-129.65 94.22,0 170.87,76.07 170.87,169.58 0,121.02 -99.19,219.48 -221.1,219.48 -156.52,0 -283.87,-126.43 -283.87,-281.84 0,-73.45 22.14,-144.1 64.01,-204.28 20.2,-29.03 44.53,-54.93 72.3,-76.97 12.98,-10.3 15.15,-29.17 4.85,-42.15 -5.92,-7.46 -14.68,-11.35 -23.52,-11.35" /><path
         id="path188"
         style="fill:#e74c3c;fill-opacity:1;fill-rule:nonzero;stroke:none"
         d="m 3818.91,1799.49 c -171.77,0 -317.16,75.8 -353.29,180.08 -172.92,1.44 -307.72,83.77 -307.72,188.61 0,111.16 187.67,188.62 356.09,188.62 16.57,0 30,-13.43 30,-30 0,-16.58 -13.43,-30 -30,-30 -156.68,0 -296.09,-71.93 -296.09,-128.62 0,-62.12 101.39,-128.63 252.32,-128.63 5.87,0 11.68,0.15 17.48,0.34 15.12,0.46 28.1,-10.18 30.59,-25 14.65,-87.14 146.7,-155.4 300.62,-155.4 153.92,0 285.98,68.26 300.63,155.4 2.5,14.82 15.78,25.37 30.59,25 5.78,-0.19 11.59,-0.34 17.46,-0.34 150.93,0 252.32,66.51 252.32,128.63 0,56.17 -148.89,128.62 -307.04,128.62 -16.57,0 -30,13.42 -30,30 0,16.57 13.43,30 30,30 153.26,0 367.04,-71.76 367.04,-188.62 0,-104.84 -134.78,-187.17 -307.7,-188.61 -36.14,-104.28 -181.53,-180.08 -353.3,-180.08" /><path
         id="path190"
         style="fill:#e74c3c;fill-opacity:1;fill-rule:nonzero;stroke:none"
         d="m 3820.25,1533.19 c -153.4,0 -301.09,33.27 -405.19,91.26 -14.47,8.07 -19.67,26.34 -11.6,40.81 8.06,14.48 26.33,19.66 40.8,11.61 95.45,-53.18 232.49,-83.68 375.99,-83.68 136.32,0 263.97,26.61 359.44,74.93 14.77,7.49 32.83,1.56 40.31,-13.23 7.49,-14.78 1.57,-32.83 -13.22,-40.31 -103.7,-52.48 -240.98,-81.39 -386.53,-81.39" /><path
         id="path192"
         style="fill:#e74c3c;fill-opacity:1;fill-rule:nonzero;stroke:none"
         d="m 3820.25,1226.77 c -153.42,0 -301.11,33.26 -405.19,91.27 -14.47,8.05 -19.67,26.33 -11.6,40.8 8.06,14.48 26.33,19.68 40.81,11.6 95.42,-53.17 232.46,-83.67 375.98,-83.67 136.31,0 263.96,26.6 359.44,74.91 14.79,7.48 32.83,1.55 40.31,-13.22 7.49,-14.79 1.57,-32.84 -13.22,-40.32 -103.71,-52.48 -240.99,-81.37 -386.53,-81.37" /><path
         id="path194"
         style="fill:#e74c3c;fill-opacity:1;fill-rule:nonzero;stroke:none"
         d="m 5705.03,1842.09 60.03,-72.15 c 85.65,-102.97 226.08,-271.39 312.1,-374.28 l 63.57,-76.08 c 35.8,-42.83 83.16,-66.43 133.35,-66.43 50.19,0 97.54,23.6 133.34,66.43 l 63.58,76.08 c 85.71,102.56 222.97,270.76 305.97,374.94 l 52.93,66.45 z m 569.05,-648.94 c -68.28,0 -131.99,31.24 -179.39,87.95 l -63.58,76.09 c -86.02,102.91 -226.49,271.38 -312.17,374.37 l -101.21,121.62 c -7.46,8.97 -9.05,21.44 -4.08,31.99 4.96,10.5 15.53,17.2 27.14,17.2 0.05,0 0.09,0 0.14,0 l 1251.13,-5.59 c 11.49,-0.05 21.95,-6.67 26.91,-17.03 4.98,-10.38 3.58,-22.67 -3.58,-31.66 l -91.48,-114.88 C 6740.66,1628.72 6603,1460.04 6517.03,1357.19 l -63.57,-76.09 c -47.4,-56.71 -111.11,-87.95 -179.38,-87.95" /><path
         id="path196"
         style="fill:#e74c3c;fill-opacity:1;fill-rule:nonzero;stroke:none"
         d="m 5640.2,1843.85 c -13,0 -24.99,8.51 -28.8,21.63 -6.92,23.76 -10.42,48.47 -10.42,73.42 0,144.59 117.62,262.22 262.21,262.22 16.11,0 32.12,-1.47 47.9,-4.41 26.9,135.19 129.89,245.54 265.26,280.16 16,4.1 32.38,-5.57 36.49,-21.63 4.11,-16.04 -5.57,-32.39 -21.63,-36.49 -122.31,-31.29 -212.95,-136.69 -225.52,-262.27 -0.9,-9.05 -5.87,-17.19 -13.49,-22.15 -7.62,-4.96 -17.08,-6.19 -25.73,-3.36 -20.5,6.74 -41.79,10.15 -63.28,10.15 -111.5,0 -202.21,-90.72 -202.21,-202.22 0,-19.28 2.7,-38.34 8.03,-56.66 4.63,-15.91 -4.51,-32.55 -20.43,-37.19 -2.79,-0.81 -5.61,-1.2 -8.38,-1.2" /><path
         id="path198"
         style="fill:#e74c3c;fill-opacity:1;fill-rule:nonzero;stroke:none"
         d="m 6893.17,1846.15 c -2.67,0 -5.39,0.36 -8.09,1.12 -15.96,4.46 -25.28,21.01 -20.82,36.97 4.95,17.7 7.46,36.09 7.46,54.66 0,111.5 -90.71,202.22 -202.21,202.22 -21.5,0 -42.79,-3.41 -63.28,-10.14 -8.64,-2.85 -18.1,-1.61 -25.72,3.35 -7.63,4.96 -12.59,13.1 -13.5,22.15 -7.8,77.89 -45.11,148.84 -105.05,199.81 -12.62,10.73 -14.15,29.66 -3.42,42.28 10.74,12.64 29.68,14.15 42.29,3.42 62.93,-53.5 105.05,-125.45 120.8,-205.27 15.77,2.93 31.78,4.4 47.88,4.4 144.58,0 262.21,-117.63 262.21,-262.22 0,-24.03 -3.25,-47.86 -9.67,-70.81 -3.71,-13.26 -15.76,-21.94 -28.88,-21.94" /><path
         id="path200"
         style="fill:#e74c3c;fill-opacity:1;fill-rule:nonzero;stroke:none"
         d="m 6340.85,2610.86 c -70.38,0 -127.65,-57.26 -127.65,-127.64 0,-70.38 57.27,-127.64 127.65,-127.64 70.38,0 127.64,57.26 127.64,127.64 0,70.38 -57.26,127.64 -127.64,127.64 z m 0,-315.28 c -103.47,0 -187.65,84.18 -187.65,187.64 0,103.47 84.18,187.64 187.65,187.64 103.47,0 187.64,-84.17 187.64,-187.64 0,-103.46 -84.17,-187.64 -187.64,-187.64" /><path
         id="path202"
         style="fill:#e74c3c;fill-opacity:1;fill-rule:nonzero;stroke:none"
         d="m 6266.35,766.07 c -16.57,0 -30,13.43 -30,30 v 424.33 c 0,16.57 13.43,30 30,30 16.57,0 30,-13.43 30,-30 V 796.07 c 0,-16.57 -13.43,-30 -30,-30" /><path
         id="path204"
         style="fill:#e74c3c;fill-opacity:1;fill-rule:nonzero;stroke:none"
         d="m 6263.56,740.398 c -36.49,0 -71.66,-8.656 -96.48,-23.757 l -26.4,-16.078 c -48.33,-29.391 -120.33,-74.102 -177.97,-110.461 l 603.94,0.589 c -58.74,35.86 -131.59,80.301 -180.19,109.848 L 6360,716.648 c -24.79,15.094 -59.95,23.75 -96.44,23.75 z M 5859.55,530 c -14.38,0 -26.74,10.211 -29.46,24.34 -2.4,12.512 3.36,24.98 13.99,31.359 l 45.24,28.903 c 60.31,38.519 159.08,100.078 220.16,137.211 l 26.4,16.078 c 34.47,20.968 79.81,32.507 127.68,32.507 47.88,0 93.21,-11.539 127.64,-32.5 l 26.45,-16.097 c 61.64,-37.481 162.32,-98.93 223.75,-136.449 l 47.38,-28.942 c 11.46,-7.019 16.88,-20.789 13.25,-33.711 -3.63,-12.937 -15.42,-21.89 -28.86,-21.898 L 5859.58,530 c -0.01,0 -0.02,0 -0.03,0" /><path
         id="path206"
         style="fill:#e74c3c;fill-opacity:1;fill-rule:nonzero;stroke:none"
         d="m 6347.67,2399.33 c -2.24,0 -4.54,0.06 -6.9,0.2 -16.54,0.98 -29.16,15.18 -28.19,31.71 0.97,16.55 15.4,28.99 31.71,28.19 6.34,-0.41 14.65,0.05 18.76,4.18 4.74,4.78 5.36,14.96 5.28,16.25 -1.04,16.54 11.52,30.78 28.07,31.82 16.34,1.03 30.78,-11.52 31.81,-28.07 0.24,-3.81 1.63,-37.96 -22.66,-62.34 -10.2,-10.23 -28.32,-21.94 -57.88,-21.94" /><path
         id="path208"
         style="fill:#e74c3c;fill-opacity:1;fill-rule:nonzero;stroke:none"
         d="m 8350.07,590 h 727.46 c -0.73,199.941 -163.62,362.359 -363.73,362.359 -200.11,0 -363,-162.418 -363.73,-362.359 z m 787.46,-60 h -847.46 v 58.629 c 0,233.652 190.09,423.731 423.73,423.731 233.64,0 423.73,-190.079 423.73,-423.731 V 530" /><path
         id="path210"
         style="fill:#e74c3c;fill-opacity:1;fill-rule:nonzero;stroke:none"
         d="m 8938.28,957.141 h -448.96 c -242.86,0 -440.44,197.579 -440.44,440.429 v 218.97 l -0.83,22.49 c -0.65,5.02 -1.26,10.08 -1.88,15.17 -5.16,42.33 -10.5,86.1 -33.88,111.98 -29.59,32.75 -80.3,35.31 -113.01,5.74 -11.5,-10.39 -18.27,-24.63 -19.06,-40.1 -0.79,-15.48 4.51,-30.33 14.89,-41.82 7.24,-8.03 17.16,-12.73 27.93,-13.28 10.89,-0.67 21.14,3.13 29.15,10.37 10.76,9.73 11.61,26.42 1.87,37.21 -11.09,12.3 -10.12,31.27 2.18,42.37 12.3,11.1 31.27,10.12 42.37,-2.18 31.89,-35.33 29.1,-90.03 -6.21,-121.92 -19.9,-17.99 -45.78,-27.26 -72.4,-25.77 -26.8,1.35 -51.46,13.07 -69.42,32.99 -21.13,23.36 -31.88,53.59 -30.28,85.07 1.6,31.49 15.36,60.46 38.76,81.6 57.29,51.71 146,47.2 197.74,-10.04 36.14,-39.98 42.94,-95.76 48.93,-144.96 0.66,-5.41 1.31,-10.78 2,-16.11 0.12,-0.91 0.19,-1.82 0.23,-2.74 l 0.9,-24.41 c 0.01,-0.37 0.02,-0.73 0.02,-1.1 v -219.53 c 0,-209.77 170.66,-380.43 380.44,-380.43 h 448.96 c 209.77,0 380.43,170.66 380.43,380.43 v 219.53 c 0,0.37 0.01,0.74 0.02,1.11 l 0.91,24.41 c 0.04,0.92 0.11,1.82 0.22,2.73 0.7,5.3 1.34,10.66 2,16.03 5.99,49.24 12.79,105.04 48.94,145.04 51.75,57.25 140.43,61.76 197.73,10.04 23.39,-21.14 37.15,-50.11 38.76,-81.6 1.6,-31.48 -9.16,-61.71 -30.3,-85.09 -17.95,-19.9 -42.6,-31.62 -69.39,-32.97 -26.9,-1.38 -52.51,7.78 -72.4,25.76 -35.32,31.89 -38.11,86.59 -6.23,121.93 11.12,12.31 30.06,13.28 42.38,2.18 12.3,-11.1 13.27,-30.07 2.18,-42.37 -9.74,-10.79 -8.89,-27.48 1.88,-37.21 8.01,-7.24 18.42,-10.96 29.14,-10.37 10.77,0.55 20.68,5.25 27.91,13.26 10.4,11.51 15.69,26.36 14.9,41.84 -0.78,15.47 -7.55,29.71 -19.05,40.1 -32.73,29.58 -83.41,27 -113,-5.74 -23.41,-25.89 -28.74,-69.7 -33.89,-112.05 -0.62,-5.07 -1.23,-10.11 -1.87,-15.1 l -0.84,-22.5 v -218.96 c 0,-242.85 -197.58,-440.429 -440.43,-440.429" /><path
         id="path212"
         style="fill:#e74c3c;fill-opacity:1;fill-rule:nonzero;stroke:none"
         d="m 8713.8,1490.83 c -179.84,0 -349.38,40.86 -477.36,115.06 -133.14,77.18 -206.46,181.58 -206.46,293.96 0,118.38 83.29,229.28 229.34,306.52 -0.19,4.16 -0.28,8.24 -0.28,12.28 0,155.85 121.43,295.55 302.15,347.63 15.96,4.62 32.55,-4.61 37.14,-20.52 4.59,-15.93 -4.6,-32.55 -20.52,-37.14 -154.77,-44.6 -258.77,-161.13 -258.77,-289.97 0,-8.37 0.51,-17.08 1.57,-26.62 1.37,-12.55 -5.25,-24.62 -16.58,-30.19 -136.03,-67.01 -214.05,-162.49 -214.05,-261.99 0,-192.45 279.84,-349.02 623.82,-349.02 343.98,0 623.83,156.57 623.83,349.02 0,99.5 -78.03,194.99 -214.08,262 -11.31,5.57 -17.93,17.62 -16.57,30.16 1.06,9.64 1.56,18.35 1.56,26.64 0,93.07 -53.13,180.34 -145.77,239.46 -13.96,8.91 -18.05,27.46 -9.15,41.43 8.91,13.96 27.43,18.05 41.44,9.15 110.25,-70.36 173.48,-176.07 173.48,-290.04 0,-4.02 -0.08,-8.1 -0.28,-12.27 146.07,-77.24 229.37,-188.15 229.37,-306.53 0,-112.38 -73.32,-216.78 -206.46,-293.96 -127.99,-74.2 -297.53,-115.06 -477.37,-115.06" /><path
         id="path214"
         style="fill:#e74c3c;fill-opacity:1;fill-rule:nonzero;stroke:none"
         d="m 8689.56,2751.59 c -8.87,-2.93 -17.34,-7.05 -25.31,-12.3 -1.4,-0.93 -2.87,-1.96 -4.34,-3.02 -72.23,-52.75 -60.48,-177.23 -56.62,-218.14 l 0.12,-1.29 c 0.64,-6.8 1.2,-14.65 1.81,-23.19 2.22,-31.15 7.43,-104.11 25.82,-116.5 3.93,-2.65 10.67,-4.05 19.48,-4.05 27.66,0 67.22,13.61 99.02,24.55 5.45,1.87 10.74,3.69 15.83,5.4 3.57,1.2 7.48,2.48 11.71,3.85 54.38,17.73 155.58,50.73 175.96,131.95 0.45,1.8 0.89,3.75 1.28,5.7 2.09,10.29 2.77,20.34 2.05,30 l -2.53,13.33 c -5.93,42.32 -43.26,92.24 -95.12,127.17 -41.01,27.65 -86.9,43.5 -125.9,43.5 -10.83,0 -20.81,-1.24 -29.65,-3.68 l -13.1,-3.62 z m -39.03,-438.49 c -0.01,0 -0.01,0 -0.01,0 -21.1,0.01 -38.93,4.81 -53,14.28 -42.65,28.73 -48.14,105.75 -52.15,162 -0.57,8.04 -1.09,15.44 -1.7,21.84 l -0.12,1.28 c -4.64,49.31 -18.81,199.35 81.01,272.25 2.17,1.57 4.33,3.06 6.51,4.53 17.79,11.75 37.15,19.83 57.66,24.1 l 12.19,2.54 0.12,-0.08 c 10.1,1.8 20.74,2.71 31.78,2.71 51.39,0 108.01,-19.09 159.44,-53.74 63.5,-42.79 107.35,-101.29 119.2,-158.32 l 2.29,-9.2 c 4.07,-20.82 3.86,-42.57 -0.63,-64.67 -0.56,-2.76 -1.18,-5.52 -1.86,-8.26 -28.48,-113.5 -154.85,-154.7 -215.59,-174.51 -4.04,-1.31 -7.79,-2.54 -11.2,-3.68 -4.95,-1.67 -10.1,-3.44 -15.41,-5.26 -37.9,-13.04 -80.85,-27.81 -118.53,-27.81" /><path
         id="path216"
         style="fill:#e74c3c;fill-opacity:1;fill-rule:nonzero;stroke:none"
         d="m 8898.35,2699.84 c -9.05,0 -18.01,4.09 -23.91,11.86 -10.03,13.19 -7.45,32.01 5.75,42.03 5.98,4.56 61.5,43.63 163.34,13.14 15.86,-4.75 24.89,-21.47 20.13,-37.34 -4.75,-15.87 -21.46,-24.9 -37.34,-20.14 -72.3,21.64 -109.5,-3.18 -109.85,-3.43 -5.42,-4.12 -11.79,-6.12 -18.12,-6.12" /><path
         id="path218"
         style="fill:#e74c3c;fill-opacity:1;fill-rule:nonzero;stroke:none"
         d="m 8888.77,2745.39 -48.54,35.27 c 0,0 -0.37,-0.41 -0.85,-1.28 4.63,8.32 4.56,33.76 -28.96,70.61 -11.14,12.26 -10.24,31.23 2.01,42.38 12.27,11.16 31.22,10.26 42.38,-2.01 76.57,-84.18 35.74,-142.53 33.96,-144.97" /><path
         id="path220"
         style="fill:#e74c3c;fill-opacity:1;fill-rule:nonzero;stroke:none"
         d="m 8700.41,2610.83 c -6.77,0 -13.57,2.28 -19.19,6.95 -12.72,10.61 -14.44,29.53 -3.84,42.26 l 16.67,20 c 10.62,12.72 29.51,14.45 42.26,3.84 12.72,-10.61 14.44,-29.53 3.84,-42.26 l -16.67,-20 c -5.94,-7.12 -14.48,-10.79 -23.07,-10.79" /><path
         id="path222"
         style="fill:#e74c3c;fill-opacity:1;fill-rule:nonzero;stroke:none"
         d="m 8833.75,2537.49 c -6.77,0 -13.57,2.28 -19.19,6.95 -12.72,10.61 -14.44,29.53 -3.84,42.26 l 16.67,20 c 10.61,12.72 29.51,14.45 42.26,3.84 12.72,-10.61 14.44,-29.53 3.84,-42.26 l -16.67,-20 c -5.94,-7.12 -14.48,-10.79 -23.07,-10.79" /><path
         id="path224"
         style="fill:#e74c3c;fill-opacity:1;fill-rule:nonzero;stroke:none"
         d="m 8700.41,2454.16 c -6.77,0 -13.57,2.28 -19.19,6.95 -12.72,10.61 -14.44,29.53 -3.84,42.26 l 16.67,20 c 10.62,12.72 29.51,14.46 42.26,3.84 12.72,-10.61 14.44,-29.53 3.84,-42.26 l -16.67,-20 c -5.94,-7.12 -14.48,-10.79 -23.07,-10.79" /></g></g></svg>